<svg width="12" height="15" viewBox="0 0 12 15" fill="none" xmlns="http://www.w3.org/2000/svg">
<path d="M6 14.9731L5.58379 14.6163C5.01001 14.1359 0 9.80902 0 6.64404C0 3.33034 2.6863 0.644043 6 0.644043C9.3137 0.644043 12 3.33034 12 6.64404C12 9.80905 6.98998 14.1359 6.41859 14.6187L6 14.9731ZM6 1.94142C3.40405 1.94436 1.30034 4.04806 1.2974 6.64402C1.2974 8.63233 4.37976 11.8086 6 13.2624C7.62027 11.808 10.7026 8.62992 10.7026 6.64402C10.6997 4.04806 8.59598 1.94438 6 1.94142Z" fill="#757C82"/>
<path d="M5.99944 9.02232C4.68592 9.02232 3.62109 7.9575 3.62109 6.64397C3.62109 5.33045 4.68592 4.26562 5.99944 4.26562C7.31297 4.26562 8.37779 5.33045 8.37779 6.64397C8.37779 7.9575 7.31299 9.02232 5.99944 9.02232ZM5.99944 5.45477C5.34268 5.45477 4.81027 5.98718 4.81027 6.64395C4.81027 7.30071 5.34268 7.83312 5.99944 7.83312C6.6562 7.83312 7.18862 7.30071 7.18862 6.64395C7.18862 5.98718 6.65623 5.45477 5.99944 5.45477Z" fill="#757C82"/>
</svg>
