<svg width="64" height="66" viewBox="0 0 64 66" fill="none" xmlns="http://www.w3.org/2000/svg">
<path fill-rule="evenodd" clip-rule="evenodd" d="M17.3121 10.2558C17.3121 9.57525 17.5389 7.64702 18.6165 6.2292C21.8491 2.76972 30.8097 -2.44786 41.1314 1.29519C44.0805 2.48615 44.7611 2.82643 46.746 4.24425C48.3907 5.43522 49.7518 6.79633 50.7159 8.55442C51.5666 10.029 51.7934 11.6169 51.7934 13.3183C51.7934 13.9988 51.7367 14.6227 51.7367 15.3032C51.7367 15.4734 51.7934 15.7002 51.8502 15.8704C52.8143 13.772 52.9277 11.6169 52.3039 9.46183C51.68 7.30674 50.3189 5.54864 48.731 4.0174C48.7877 3.96069 48.8444 3.90397 48.9578 3.84726C49.1847 3.96069 49.4115 4.0174 49.6384 4.13082C50.9995 4.98152 52.3039 6.05906 53.2113 7.36345C55.2529 10.1991 56.1036 13.375 55.0828 16.8345C54.1187 20.0104 52.0203 22.1655 49.2414 23.6967C48.8444 23.9236 48.3907 24.0937 47.9937 24.3206C47.7668 24.434 47.4833 24.6041 47.4833 24.7743C47.4833 25.0011 47.7101 25.228 47.8803 25.3981C49.1279 26.2488 50.4891 27.0428 51.7367 27.9502C54.2321 29.765 56.217 32.0335 57.805 34.6423C61.1511 40.427 59.79 46.949 59.9601 47.1191C60.0735 46.7788 61.548 42.5821 59.9601 36.684C59.2795 34.5856 58.202 32.6573 56.7842 30.956C55.9902 30.0486 55.1962 29.1412 54.4022 28.2338C54.2888 28.0636 54.1754 27.8935 54.062 27.7233C54.1187 27.6666 54.1187 27.6099 54.1754 27.5532C54.4022 27.6099 54.6858 27.6666 54.9127 27.7801C56.6707 28.9143 58.4856 30.0486 59.8467 31.6932C61.0376 33.111 61.945 34.699 62.5689 36.4004C63.4763 38.839 64.1001 41.3344 63.9867 43.9999C63.8733 48.7071 62.0017 52.677 58.8258 56.0797C56.4439 58.6318 53.5515 60.5033 50.3189 61.8644C48.2205 62.7718 46.0087 63.3957 43.7969 63.8494C39.2599 64.8702 34.7796 64.5299 30.4127 63.1121C28.2009 62.4316 26.1026 61.4674 23.9475 60.56C19.9776 58.8587 16.0644 57.1006 12.0945 55.4559C10.9603 55.0022 9.65586 54.832 8.46489 55.5693C7.55748 56.1364 7.16049 57.4975 7.6142 58.4617C8.12461 59.4258 9.14544 59.8228 10.2797 59.4825C10.5065 59.4258 10.7901 59.4825 11.017 59.4825C10.9603 59.7093 10.9035 60.0496 10.7334 60.2198C9.20216 61.8644 7.16049 61.9211 5.45911 60.163C4.83527 59.5392 4.49499 58.6318 4.04129 57.7811C3.81444 58.4049 3.87115 59.1422 4.15472 59.6526C5.28897 61.9778 7.89776 63.5658 10.8468 62.2047C11.8677 61.6943 12.6049 60.7869 13.1153 59.7661C13.2288 59.5392 13.3989 59.3691 13.569 59.1989C13.6825 59.4258 13.9093 59.7093 13.8526 59.9362C13.7392 61.9778 12.8885 63.5658 11.0737 64.5866C9.48572 65.4373 7.84105 65.8343 6.02624 65.4373C3.6443 64.9836 2.05634 63.5091 0.978802 61.4674C-0.325592 59.0288 -0.268879 56.42 0.808664 53.9813C1.99963 51.3726 4.15472 49.898 6.99036 49.3876C9.93942 48.8772 12.6049 49.7279 15.1003 51.2024C17.8225 52.9038 20.6014 54.4918 23.3804 56.1931C26.0459 57.8378 28.8248 59.1989 31.944 59.9362C34.9498 60.6735 38.0122 60.56 41.0747 59.9362C43.2298 59.4825 45.2715 58.8019 47.1997 57.7244C49.2981 56.5334 51.1129 55.0022 52.5307 53.0739C53.7217 51.4293 54.6291 49.6712 55.1395 47.6862C55.7633 45.2476 55.8768 42.8089 55.4231 40.3136C54.8559 36.8541 53.268 33.905 50.886 31.4097C49.8652 30.3321 48.6742 29.4247 47.4266 28.6875C45.3282 27.4965 43.1731 26.4757 41.018 25.4548C40.2808 25.1146 39.4301 24.8877 38.6928 24.5474C38.4659 24.4907 38.3525 24.2639 38.1257 24.0937C38.3525 23.9803 38.5227 23.8102 38.7495 23.7534C41.0747 23.3565 43.2298 22.4491 44.9312 20.8044C47.5967 18.1956 49.0712 14.566 47.143 10.5394C42.0956 1.52204 30.1859 2.20259 25.5354 5.20837C24.2878 6.00235 22.8132 7.47688 21.9625 8.78127C21.282 9.85881 21.0551 12.8646 20.9984 14.0556C20.9417 16.8345 20.9417 15.4734 20.885 18.309C20.885 23.3565 20.8283 28.3472 20.8283 33.3946C20.8283 36.0601 20.8283 38.7256 21.282 41.3911C21.679 43.4328 22.4162 45.3043 23.6639 47.0057C25.0817 48.8772 26.613 50.6353 28.7114 51.8263C31.8873 53.6978 35.2333 54.5485 38.8629 53.8112C41.4717 53.3008 43.7969 52.1098 45.555 50.0115C47.54 47.6295 48.2773 44.8506 48.0504 41.7881C47.4833 37.2511 44.8178 34.1886 44.8178 34.1886C44.8178 34.1886 48.5608 39.5196 46.4624 46.6654C44.8745 49.898 42.1523 52.0531 38.6361 52.8471C36.4243 53.3575 29.6188 53.2441 27.7472 48.3668C26.4428 44.964 28.7681 43.2059 28.7681 43.2059C28.7681 43.2059 27.6905 46.552 29.8456 48.8205C31.7171 50.8054 34.7796 52.1098 38.1824 51.089C41.6419 50.0682 42.6627 47.4594 43.2865 44.4536C43.6835 42.5821 43.5134 40.5971 43.1164 38.7823C42.606 36.5705 41.415 34.9826 39.8838 33.2812C38.6361 31.8067 37.1048 30.7291 35.4602 29.765C32.9081 28.2338 30.356 26.6458 27.9741 24.831C25.8757 23.243 24.0609 21.3148 23.2102 18.706C22.4729 16.3808 22.4729 14.0556 23.4371 11.787C24.5713 9.29169 26.4996 7.70373 29.0516 6.73961C31.7738 5.66207 34.5528 5.54864 37.3317 6.17248C40.3942 6.90975 42.9463 8.441 44.2507 11.5035C45.3282 14.0556 44.9312 16.3808 43.1731 18.4792C41.415 20.6342 39.1465 21.7118 36.4243 21.9386C36.084 21.9953 35.687 21.8819 35.3467 21.8252C35.3467 21.7685 35.3467 21.6551 35.3467 21.5984C35.5169 21.5416 35.687 21.4282 35.8572 21.3715C37.4451 20.8611 38.9196 20.1238 40.0539 18.8761C40.7345 18.1389 41.2449 17.2882 41.4717 16.2674C41.5851 15.7002 41.6986 15.0764 41.7553 14.5093C41.7553 14.2824 41.6986 13.9988 41.6419 13.7153C41.1314 14.963 40.7912 16.1539 40.1106 17.118C39.4868 18.0822 38.5794 18.9329 37.3884 19.2164C37.3317 19.1597 37.275 19.103 37.2183 19.103C37.3884 18.8194 37.5018 18.4792 37.672 18.1956C39.2032 15.6435 39.1465 13.0347 37.5018 10.7095C36.1974 8.78127 34.3826 8.15743 32.0574 9.00812C30.4127 9.63196 29.3919 10.7095 28.8248 12.3542C27.6905 15.5868 28.5412 18.4224 30.2426 21.0879C31.4336 22.9595 33.1349 24.3206 35.1199 25.3414C37.0481 26.3055 38.9764 27.2129 40.9046 28.2338C42.606 29.1412 44.3074 29.9918 45.8953 31.1261C47.8803 32.4872 49.5816 34.1319 50.7159 36.287C51.5666 37.8749 52.1337 39.5763 52.3606 41.3911C52.5874 43.2059 52.6441 45.0207 52.077 46.8355C51.3965 49.0473 50.2622 50.9756 48.6742 52.6202C46.0655 55.3425 42.7761 56.6469 39.2032 57.1573C36.5377 57.4975 33.9289 57.214 31.3201 56.4767C28.3144 55.626 25.6489 54.1515 23.0401 52.5068C21.5655 51.5427 20.2044 50.5219 18.6732 49.6145C16.8017 48.4802 14.8734 47.4594 12.8885 46.4386C12.4348 46.2117 12.2079 45.8714 12.2079 45.361C12.2646 40.0867 12.2646 34.8124 12.2646 29.5381C12.2646 22.1655 12.3214 17.5718 12.3214 10.1424C12.3214 9.63196 12.2646 9.51854 12.1512 9.06484C11.6975 7.19331 10.8468 6.45605 8.80517 6.00235C7.67091 5.7755 6.59337 6.00235 5.62925 6.73961C5.28897 7.02318 4.9487 7.25003 4.55171 7.47688C3.75773 7.98729 3.07718 7.70373 2.90704 6.73961C2.7369 5.7755 2.79361 4.75466 3.36074 3.90397C4.098 2.71301 6.36652 1.46532 10.0528 3.10999C12.8318 4.4711 15.6674 6.2292 15.8376 10.1991C16.0077 15.36 16.0077 14.5093 16.1778 19.6134C16.2345 20.9745 16.4614 39.1226 16.5748 40.4837" fill="#F7AB42"/>
</svg>
