<svg width="37" height="37" viewBox="0 0 37 37" fill="none" xmlns="http://www.w3.org/2000/svg">
<path fill-rule="evenodd" clip-rule="evenodd" d="M0 18.5C0 8.28273 8.28273 0 18.5 0C28.7173 0 37 8.28273 37 18.5C37 28.7173 28.7173 37 18.5 37C8.28273 37 0 28.7173 0 18.5ZM18.4874 18.797C21.2155 18.797 23.433 16.6561 23.433 14.0242C23.433 11.3915 21.2155 9.25 18.4874 9.25C15.76 9.25 13.5418 11.3915 13.5418 14.0242C13.5418 16.6561 15.76 18.797 18.4874 18.797ZM20.5011 22.6936C21.5078 22.4722 22.4786 22.0877 23.3729 21.5456C24.0497 21.1337 24.2535 20.2702 23.8271 19.6169C23.401 18.9622 22.5071 18.7651 21.8291 19.177C19.8033 20.4067 17.1951 20.4064 15.1705 19.177C14.4925 18.7651 13.5983 18.9622 13.173 19.6169C12.7466 20.2708 12.9499 21.1337 13.6267 21.5456C14.5209 22.0871 15.4918 22.4722 16.4985 22.6936L13.7335 25.3626C13.1683 25.9088 13.1683 26.7942 13.7341 27.3404C14.0173 27.6132 14.3878 27.7497 14.7583 27.7497C15.1293 27.7497 15.5004 27.6132 15.7836 27.3404L18.4995 24.7176L21.2178 27.3404C21.783 27.8865 22.7 27.8865 23.2658 27.3404C23.8322 26.7942 23.8322 25.9082 23.2658 25.3626L20.5011 22.6936Z" fill="#C7D2E0"/>
<path fill-rule="evenodd" clip-rule="evenodd" d="M18.4874 12.0479C19.6166 12.0479 20.5352 12.9342 20.5352 14.0242C20.5352 15.1134 19.6166 16.0003 18.4874 16.0003C17.3591 16.0003 16.4397 15.1134 16.4397 14.0242C16.4397 12.9342 17.3591 12.0479 18.4874 12.0479Z" fill="#C7D2E0"/>
</svg>
