<svg width="37" height="37" viewBox="0 0 37 37" fill="none" xmlns="http://www.w3.org/2000/svg">
<path fill-rule="evenodd" clip-rule="evenodd" d="M37 18.5C37 28.7172 28.7172 37 18.5 37C8.28276 37 0 28.7172 0 18.5C0 8.28276 8.28276 0 18.5 0C28.7172 0 37 8.28276 37 18.5ZM12.3884 16.8053C10.5352 17.6145 8.6311 18.4459 6.8899 19.405C5.98072 20.0707 7.18908 20.5416 8.32276 20.9832C8.50299 21.0535 8.68128 21.1229 8.84894 21.1923C8.98846 21.2352 9.13029 21.2804 9.27405 21.3262C10.5349 21.7279 11.9407 22.1758 13.1648 21.502C15.1756 20.3469 17.0732 19.0115 18.9694 17.6771C19.5906 17.2399 20.2116 16.8029 20.8365 16.3723C20.8658 16.3535 20.8988 16.3321 20.9349 16.3088C21.4672 15.9636 22.6643 15.1877 22.2215 16.257C21.1744 17.4021 20.0528 18.4157 18.9251 19.435C18.1651 20.1219 17.4023 20.8113 16.6576 21.5452C16.0091 22.0721 15.3357 23.1318 16.0619 23.8697C17.7345 25.0406 19.4332 26.1831 21.131 27.325C21.6835 27.6966 22.2359 28.0681 22.7872 28.4406C23.7216 29.1866 25.182 28.5831 25.3874 27.4174C25.4787 26.8811 25.5705 26.3449 25.6622 25.8087C26.1691 22.845 26.6762 19.8803 27.1241 16.9071C27.185 16.4406 27.254 15.9743 27.323 15.5077C27.4904 14.3768 27.658 13.2445 27.7103 12.1076C27.5754 10.9729 26.1996 11.2224 25.434 11.4776C21.4988 12.975 17.6028 14.5834 13.7223 16.2202C13.2827 16.4149 12.8371 16.6095 12.3884 16.8053Z" fill="#C7D2E0"/>
</svg>
