<svg width="37" height="37" viewBox="0 0 37 37" fill="none" xmlns="http://www.w3.org/2000/svg">
<path fill-rule="evenodd" clip-rule="evenodd" d="M0 18.5C0 8.28273 8.28273 0 18.5 0C28.7173 0 37 8.28273 37 18.5C37 28.7173 28.7173 37 18.5 37C8.28273 37 0 28.7173 0 18.5ZM19.4678 24.5711C19.4678 24.5711 19.8239 24.5323 20.0063 24.34C20.1733 24.1638 20.1675 23.8312 20.1675 23.8312C20.1675 23.8312 20.1453 22.2784 20.8798 22.0492C21.6036 21.8237 22.5331 23.5508 23.5195 24.2149C24.2646 24.717 24.8302 24.6071 24.8302 24.6071L27.466 24.5711C27.466 24.5711 28.8443 24.4878 28.1908 23.4238C28.1368 23.3367 27.8096 22.6366 26.2316 21.1984C24.5783 19.693 24.8003 19.9365 26.7904 17.3321C28.0026 15.7462 28.4872 14.7779 28.3356 14.3639C28.1918 13.9679 27.3 14.0731 27.3 14.0731L24.3331 14.0911C24.3331 14.0911 24.1131 14.0617 23.9499 14.1574C23.7907 14.2512 23.6874 14.47 23.6874 14.47C23.6874 14.47 23.2184 15.6969 22.592 16.7409C21.2707 18.9427 20.7427 19.0592 20.5265 18.9228C20.0237 18.6035 20.1492 17.6419 20.1492 16.9588C20.1492 14.8243 20.4792 13.9347 19.5073 13.7045C19.185 13.6278 18.9475 13.5776 18.1223 13.569C17.0635 13.5586 16.1679 13.5728 15.6602 13.8163C15.3224 13.9783 15.0618 14.3402 15.2211 14.3611C15.417 14.3866 15.861 14.4785 16.0965 14.7931C16.4005 15.1995 16.3899 16.1109 16.3899 16.1109C16.3899 16.1109 16.5646 18.6234 15.9816 18.9351C15.582 19.1492 15.0338 18.7125 13.8554 16.7144C13.2521 15.6912 12.7966 14.56 12.7966 14.56C12.7966 14.56 12.7088 14.3487 12.5514 14.2351C12.3613 14.0977 12.0959 14.0551 12.0959 14.0551L9.27665 14.0731C9.27665 14.0731 8.85294 14.0844 8.69755 14.2654C8.55954 14.4255 8.68694 14.758 8.68694 14.758C8.68694 14.758 10.8943 19.8275 13.394 22.3827C15.6863 24.7246 18.2883 24.5711 18.2883 24.5711H19.4678Z" fill="#C7D2E0"/>
</svg>
